<svg xmlns="http://www.w3.org/2000/svg" xmlns:xlink="http://www.w3.org/1999/xlink" width="322" height="292" version="1.1" viewBox="0 0 322 292"><title>Artboard 2 Copy</title><desc>Created with Sketch.</desc><g id="Artboard-2-Copy" fill="none" fill-rule="evenodd" stroke="none" stroke-linecap="round" stroke-width="1"><g id="Group-14" stroke="#00E174" stroke-width="5" transform="translate(19.000000, 24.000000)"><g id="Group-5" transform="translate(0.000000, 65.000000)"><polyline id="Stroke-1" points="115.507 50 .608 50 .608 31.707 115.507 .615"/><polyline id="Stroke-3" points="160.122 50 275.02 50 275.02 31.707 160.122 .615"/></g><polyline id="Stroke-6" points="151 218.951 188.739 226 193 209.478 154.449 184"/><polyline id="Stroke-7" points="124 219.951 86.261 227 82 210.478 120.551 185"/><path id="Stroke-8" d="M31,130 L31,169"/><path id="Stroke-9" d="M67,133 L67,187"/><path id="Stroke-10" d="M244,128 L244,167"/><path id="Stroke-11" d="M208,131 L208,185"/><path id="Stroke-12" d="M137.5,0 C124.024395,0 113,12.4702015 113,27.7123673 L122.625778,172.784561 C122.625778,211.012447 129.516025,242 138.017827,242 C144.624963,242 150.258148,223.271659 152.440765,196.979226 C152.623457,198.122691 152.682741,197.675248 152.682741,194.84023 L162,27.7123673 C162,12.4702015 150.975605,0 137.5,0 Z"/></g></g></svg>