<svg xmlns="http://www.w3.org/2000/svg" xmlns:xlink="http://www.w3.org/1999/xlink" width="1440" height="952" version="1.1" viewBox="0 0 1440 952"><title>Desktop HD Copy 33</title><desc>Created with Sketch.</desc><g id="Desktop-HD-Copy-33" fill="none" fill-rule="evenodd" stroke="none" stroke-width="1"><path id="Stroke-49" stroke="#00E174" stroke-linecap="round" stroke-width="3" d="M530,235.204838 L635.5,235.204838"/><path id="Stroke-59" stroke="#00E174" stroke-linecap="round" stroke-width="3" d="M106.152442,56.1721335 L66.1263973,93.6813345" transform="translate(86.626397, 74.681334) rotate(-90.089039) translate(-86.626397, -74.681334)"/><path id="Stroke-49" stroke="#00E174" stroke-linecap="round" stroke-width="3" d="M431.37618,149.361957 L431.37618,320.358642" transform="translate(430.876180, 235.146555) rotate(-90.089039) translate(-430.876180, -235.146555)"/><path id="Stroke-49" stroke="#00E174" stroke-linecap="round" stroke-width="3" d="M275.268345,164.402802 L414.949446,164.402802" transform="translate(345.268345, 164.864980) rotate(-90.089039) translate(-345.268345, -164.864980)"/><path id="Stroke-13" stroke="#00E174" stroke-linecap="round" stroke-width="3" d="M34.5961566,21.9304674 L34.5961566,88.7498584" transform="translate(34.596157, 55.262167) rotate(-90.089039) translate(-34.596157, -55.262167)"/><path id="Stroke-13" stroke="#00E174" stroke-linecap="round" stroke-width="3" d="M224.907311,-25.3656223 L224.907311,214.397489" transform="translate(225.157311, 94.466078) rotate(-90.089039) translate(-225.157311, -94.466078)"/><path id="Stroke-49" stroke="#00E174" stroke-linecap="round" stroke-width="3" d="M768,235.200806 L873.5,235.200806"/><path id="Stroke-49" stroke="#00E174" stroke-linecap="round" stroke-width="3" d="M886,235.200806 L1237.5,235.200806"/><path id="Stroke-49" stroke="#00E174" stroke-linecap="round" stroke-width="3" d="M648,235.200806 L753.5,235.200806"/><path id="Stroke-6" stroke="#00E174" stroke-linecap="round" stroke-width="3" d="M1352.7393,745.444228 L1352.7393,954.495573" transform="translate(1352.738060, 849.497653) rotate(-180.142579) translate(-1352.738060, -849.497653)"/><path id="Stroke-28" stroke="#00E174" stroke-linecap="round" stroke-width="3" d="M1264.45576,744.608721 L1352.47566,744.608721" transform="translate(1307.975663, 744.608721) rotate(-180.142579) translate(-1307.975663, -744.608721)"/><path id="Stroke-29" stroke="#00E174" stroke-linecap="round" stroke-width="3" d="M1263.4584,744.73441 L1251.4584,730.73441" transform="translate(1257.458400, 737.734410) rotate(-180.142579) translate(-1257.458400, -737.734410)"/><path id="Stroke-30" stroke="#00E174" stroke-linecap="round" stroke-width="3" d="M1239.43977,729.764295 L1251.43977,729.764295" transform="translate(1245.439774, 730.264295) rotate(-180.142579) translate(-1245.439774, -730.264295)"/><path id="Stroke-31" stroke="#00E174" stroke-linecap="round" stroke-width="3" d="M1239.82389,729.852629 L1239.82389,234.778748" transform="translate(1239.323892, 482.778748) rotate(-180.142579) translate(-1239.323892, -482.778748)"/><path id="Stroke-230" stroke="#00E174" stroke-width="3" d="M530,235.000497 C530,238.313789 527.313789,241 524.000497,241 C520.686211,241 518,238.313789 518,235.000497 C518,231.686211 520.686211,229 524.000497,229 C527.313789,229 530,231.686211 530,235.000497 Z"/><path id="Stroke-230" stroke="#00E174" stroke-width="3" d="M648,235.000497 C648,238.313789 645.313789,241 642.000497,241 C638.686211,241 636,238.313789 636,235.000497 C636,231.686211 638.686211,229 642.000497,229 C645.313789,229 648,231.686211 648,235.000497 Z"/><path id="Stroke-230" stroke="#00E174" stroke-width="3" d="M766,235.000497 C766,238.313789 763.313789,241 760.000497,241 C756.686211,241 754,238.313789 754,235.000497 C754,231.686211 756.686211,229 760.000497,229 C763.313789,229 766,231.686211 766,235.000497 Z"/><path id="Stroke-230" stroke="#00E174" stroke-width="3" d="M886,235.000497 C886,238.313789 883.313789,241 880.000497,241 C876.686211,241 874,238.313789 874,235.000497 C874,231.686211 876.686211,229 880.000497,229 C883.313789,229 886,231.686211 886,235.000497 Z"/></g></svg>