<svg xmlns="http://www.w3.org/2000/svg" xmlns:xlink="http://www.w3.org/1999/xlink" width="208" height="181" version="1.1" viewBox="0 0 208 181"><title>Large Logo</title><desc>Created with Sketch.</desc><g id="Large-Logo" fill="none" fill-rule="evenodd" stroke="none" stroke-linecap="round" stroke-width="1"><g id="Group-2" stroke="#00E174" stroke-width="10" transform="translate(14.000000, 11.000000)"><path id="Stroke-1" d="M154,158 L168,133"/><path id="Stroke-3" d="M176,158 L180,151"/><path id="Stroke-5" d="M0,158 L29,110"/><path id="Stroke-7" d="M80.6761762,17.8123152 L91.3238238,0.187684759"/><path id="Stroke-10" d="M58.8298476,54.9033434 L69.1701524,37.0966566"/><path id="Stroke-11" d="M38,91 L48,73"/><path id="Stroke-12" d="M76.4210662,65.2494046 L104.578934,16.7505954"/><path id="Stroke-13" d="M64,85 L67,80"/><path id="Stroke-14" d="M43,121 L53,103"/><path id="Stroke-15" d="M22,157 L34,137"/><path id="Stroke-17" d="M44,158 L47,153"/><path id="Stroke-20" d="M56,136 L59,131"/><path id="Stroke-21" d="M69,115 L72,110"/><path id="Stroke-22" d="M82,93 L113,38"/><path id="Stroke-23" d="M121,61 L124,56"/><path id="Stroke-24" d="M85,125 L114,77"/><path id="Stroke-25" d="M67,158 L76,142"/><path id="Stroke-27" d="M87,157 L112,114"/><path id="Stroke-30" d="M123,98 L136,76"/><path id="Stroke-31" d="M110,158 L113,153"/><path id="Stroke-33" d="M122.322048,135.614255 L146.677952,94.3857455"/><path id="Stroke-34" d="M132,158 L140,145"/><path id="Stroke-36" d="M150,127 L158,114"/></g></g></svg>