<svg xmlns="http://www.w3.org/2000/svg" xmlns:xlink="http://www.w3.org/1999/xlink" width="68" height="518" version="1.1" viewBox="0 0 68 518"><title>Artboard 3</title><desc>Created with Sketch.</desc><g id="Artboard-3" fill="none" fill-rule="evenodd" stroke="none" stroke-width="1"><g id="Group-2" stroke="#00E174" stroke-width="3" transform="translate(33.500000, 259.500000) rotate(-90.000000) translate(-33.500000, -259.500000) translate(-210.000000, 253.000000)"><path id="Stroke-49" stroke-linecap="round" d="M130,6.20483819 L235.5,6.20483819"/><path id="Stroke-49" stroke-linecap="round" d="M12,6.20080636 L117.5,6.20080636"/><path id="Stroke-49" stroke-linecap="round" d="M368,6.20080636 L473.5,6.20080636"/><path id="Stroke-49" stroke-linecap="round" d="M248,6.20080636 L353.5,6.20080636"/><path id="Stroke-230" d="M12.075,6.038 C12.075,9.372 9.372,12.075 6.038,12.075 C2.703,12.075 0,9.372 0,6.038 C0,2.703 2.703,0 6.038,0 C9.372,0 12.075,2.703 12.075,6.038 Z"/><path id="Stroke-230" d="M130.075,6.038 C130.075,9.372 127.372,12.075 124.038,12.075 C120.703,12.075 118,9.372 118,6.038 C118,2.703 120.703,-3.63797881e-12 124.038,-3.63797881e-12 C127.372,-3.63797881e-12 130.075,2.703 130.075,6.038 Z"/><path id="Stroke-230" d="M248.075,6.038 C248.075,9.372 245.372,12.075 242.038,12.075 C238.703,12.075 236,9.372 236,6.038 C236,2.703 238.703,0 242.038,0 C245.372,0 248.075,2.703 248.075,6.038 Z"/><path id="Stroke-230" d="M366.075,6.038 C366.075,9.372 363.372,12.075 360.038,12.075 C356.703,12.075 354,9.372 354,6.038 C354,2.703 356.703,0 360.038,0 C363.372,0 366.075,2.703 366.075,6.038 Z"/><path id="Stroke-230" d="M486.075,6.038 C486.075,9.372 483.372,12.075 480.038,12.075 C476.703,12.075 474,9.372 474,6.038 C474,2.703 476.703,0 480.038,0 C483.372,0 486.075,2.703 486.075,6.038 Z"/></g></g></svg>